<?xml version="1.0" standalone="no"?>
<!DOCTYPE svg PUBLIC "-//W3C//DTD SVG 1.1//EN" "http://www.w3.org/Graphics/SVG/1.1/DTD/svg11.dtd">
<svg t="1531733243954" class="icon" style="" viewBox="0 0 1024 1024" version="1.1" xmlns="http://www.w3.org/2000/svg" p-id="1837" xmlns:xlink="http://www.w3.org/1999/xlink" width="32" height="32"><defs>
<style type="text/css"></style>
</defs>
<path d="M265.728 203.4176a40.0384 40.0384 0 1 0 0-80.128 40.0384 40.0384 0 0 0 0 80.128z m0 72.1408A112.128 112.128 0 1 1 265.728 51.2a112.128 112.128 0 0 1 0 224.3584zM704.512 577.024a40.0384 40.0384 0 1 0 0-80.128 40.0384 40.0384 0 0 0 0 80.128z m0 72.0896a112.128 112.128 0 1 1 0-224.3072 112.128 112.128 0 0 1 0 224.3072zM704.512 907.52a40.0384 40.0384 0 1 0 0-80.128 40.0384 40.0384 0 0 0 0 80.128z m0 72.1408a112.128 112.128 0 1 1 0-224.3584 112.128 112.128 0 0 1 0 224.3584z" p-id="1838"></path>
<path d="M627.3536 834.4064v72.1408H297.8304c-39.8336 0-72.1408-32.256-72.1408-72.1408V222.464h72.1408v611.9424h329.5232z" p-id="1839"></path>
<path d="M273.3056 568.5248V496.384h367.2576v72.1408z" p-id="1840"></path></svg>