<?xml version="1.0" standalone="no"?><!DOCTYPE svg PUBLIC "-//W3C//DTD SVG 1.1//EN" "http://www.w3.org/Graphics/SVG/1.1/DTD/svg11.dtd"><svg t="1531733050521" class="icon" style="" viewBox="0 0 1024 1024" version="1.1" xmlns="http://www.w3.org/2000/svg" p-id="1144" xmlns:xlink="http://www.w3.org/1999/xlink" width="32" height="32"><defs><style type="text/css"></style></defs><path d="M580.4032 175.7184l49.0496 23.6032h-30.208l-18.8416-23.552z m18.8416 23.6032l178.4832 223.488v432.4352H233.472v-61.952a31.3856 31.3856 0 1 0-62.8224 0v61.952c0 34.7136 28.16 62.8224 62.8224 62.8224h544.256c34.7136 0 62.8224-28.16 62.8224-62.8224V400.896l-211.0976-264.2944H233.472c-34.7136 0-62.8224 28.1088-62.8224 62.7712v224.1536a31.3856 31.3856 0 1 0 62.8224 0V199.3216h365.7728z m192.2048 240.6912l-13.7216-39.168v22.016l13.7216 17.152z m-13.7216-39.168l13.7216 39.168-13.7216-17.2032v-22.016z m0 22.016v432.384H233.472v-61.952a31.3856 31.3856 0 1 0-62.8224 0v61.952c0 34.7136 28.16 62.8224 62.8224 62.8224h544.256c34.7136 0 62.8224-28.16 62.8224-62.8224V400.896l-211.0976-264.2944H233.472c-34.7136 0-62.8224 28.1088-62.8224 62.7712v224.1536a31.3856 31.3856 0 1 0 62.8224 0V199.3216h365.7728l178.4832 223.488z m-148.2752-223.5392l-49.0496-23.552 18.8416 23.552h30.208z" p-id="1145"></path><path d="M172.1856 686.08c0-17.408 14.0288-31.4368 31.3856-31.4368h291.84a31.3856 31.3856 0 0 1 0 62.8224h-291.84a31.3856 31.3856 0 0 1-31.3856-31.4368zM171.9808 532.992c0-17.408 14.0288-31.4368 31.3856-31.4368h143.1552a31.3856 31.3856 0 0 1 0 62.8224H203.3664a31.3856 31.3856 0 0 1-31.3856-31.4368z" p-id="1146"></path></svg>